<svg xmlns="http://www.w3.org/2000/svg" fill="none" height="608" width="736" xmlns:v="https://vecta.io/nano"><style><![CDATA[.B{fill:#5468ff}.C{fill:#fff}.D{opacity:.6}.E{fill:#000d44}.F{opacity:.2}]]></style><path d="M77.991 534.435h87.751V250.432H77.991z" class="C"/><g class="B"><path d="M77.991 534.435h87.751V250.432H77.991z" opacity=".7"/><path d="M3.504 534.389h74.487V250.477H3.504z"/></g><g class="C"><use href="#B"/><use href="#B" y="68.117"/></g><use href="#B" y="68.117" class="B D"/><g class="C"><use href="#B" y="136.234"/><use href="#B" y="204.351"/></g><g class="B"><use href="#B" class="D"/><use href="#B" y="136.234" class="D"/><use href="#B" y="204.351" class="D"/></g><g class="C"><use href="#C"/><use href="#C" y="68.902"/><use href="#D"/><use href="#D" y="68.902"/></g><path d="M155.595 591.403h10.147v-56.969h-10.147zm-77.251 0h10.147v-56.969H78.344zm-73.76 0h10.147v-56.969H4.584zm584.978-96.362h-80.664l14.527 86.238c.303 1.8 1.11 3.477 2.329 4.836a9.64 9.64 0 0 0 4.553 2.842l.284.08.717.182c.54.105 1.088.166 1.638.182v.08l.398-.057h35.947a10.2 10.2 0 0 0 1.979-.194 9.69 9.69 0 0 0 5.498-2.84 9.7 9.7 0 0 0 2.659-5.589l7.007-59.426.318-2.366 2.776-23.536zm-15.22 55.012h-8.282l.831-25.026h9.589zm2.946-25.026h7.963l-2.946 25.026h-7.156zm-23.638 52.771l-.501-21.739h11.922l-.728 21.739zm-12.889-21.739h11.58l.501 21.739h-10.386zm.899 21.739h-9.715l-3.413-21.739h11.433zm-1.32-27.745l-1.957-25.026h13.287l.58 25.026zm12.718 0l-.58-25.026h13.65l-.83 25.026zm-.717-31.033l-.625-23.183h15.357l-.774 23.183zm-.796 0h-13.651l-1.808-23.183h14.89zm-14.424 0h-14.47l-1.433-8.952-2.378-14.22h16.415zm.466 6.007l1.957 25.026h-11.979l-1.217-7.679-2.753-17.347zm-10.773 25.026h-7.78l-4.221-25.026h8.043l3.902 25.026zm.945 6.006l3.412 21.739h-7.473l-3.663-21.739zm37.425 21.739l.728-21.739h7.963l-1.865 21.739zm1.957-58.778l.773-23.183h11.103l-1.991 23.183zm-49.063-23.183c.319 1.672 1.797 10.795 3.765 23.183h-8.099l-3.902-23.183zm60.916 81.904h-6.234l1.866-21.739h6.928zm6.928-58.778H577.8l1.991-23.183h8.861z" class="B"/><use href="#E" class="C"/><g class="B"><use href="#E" class="F"/><use href="#F"/></g><use href="#F" class="E F"/><use href="#G" class="B"/><use href="#G" class="E F"/><path d="M538.85 47.571H315.354a.92.92 0 0 0-.922.921v138.725c0 .509.413.922.922.922H538.85a.92.92 0 0 0 .921-.922V48.492a.92.92 0 0 0-.921-.921z" class="C"/><path d="M305.412 196.625v11.74c0 4.601 1.827 9.013 5.081 12.266a17.35 17.35 0 0 0 12.266 5.081h208.765c4.601 0 9.013-1.827 12.267-5.081s5.081-7.665 5.081-12.266v-11.74zm71.87 62.611h101.789a5.69 5.69 0 0 0 4.022-1.666c1.067-1.066 1.666-2.513 1.666-4.021s-.599-2.956-1.666-4.022a5.69 5.69 0 0 0-4.022-1.666H377.282a5.69 5.69 0 0 0-5.688 5.688 5.69 5.69 0 0 0 5.688 5.687z" class="B"/><path d="M360.151 572.36c.893-.097 1.742-.435 2.457-.978 0 .159.091.33.137.489a4.63 4.63 0 0 1 .047 1.95c-.122.646-.381 1.258-.759 1.796a4.63 4.63 0 0 1-3.281 1.942 274.34 274.34 0 0 1-28.997 1.672c-14.856 0-27.301-.58-31.135-.785-.333-.015-.646-.161-.872-.406a1.26 1.26 0 0 1-.333-.902c0-.899.079-2.275.159-3.902 4.55.216 17.143.762 32.159.762 10.16-.033 20.312-.58 30.418-1.638z" class="C"/><path d="m321.724 555.388s25.982.842 33.194 3.97c4.232 1.832 6.518 7.576 7.701 12.024-.715.543-1.564.881-2.457.979-10.104 1.069-20.257 1.627-30.418 1.672-15.016 0-27.654-.546-32.159-.762.205-4.266.637-10.523 1.513-16.154 7.586.536 15.21-.047 22.626-1.729z" class="E"/><path d="M425.629 572.201c.176-.026.351-.064.523-.114l.25.979c.116.491.126 1.001.03 1.497s-.297.964-.589 1.376a3.56 3.56 0 0 1-1.102 1.013 3.57 3.57 0 0 1-1.422.471 302.2 302.2 0 0 1-31.772 1.82c-15.664 0-28.757-.592-32.693-.785a1.23 1.23 0 0 1-1.138-1.263c0-.887.08-2.275.16-3.902 5.426.239 18.394.728 33.66.728 14.356 0 27.643-1.149 34.093-1.82z" class="C"/><path d="M383.141 555.388s27.21.842 34.764 3.97c4.687 1.934 7.087 8.225 8.259 12.741-.172.049-.347.087-.524.114-6.45.659-19.736 1.82-34.126 1.82a796.44 796.44 0 0 1-33.661-.728c.255-5.424.795-10.831 1.615-16.199a85.01 85.01 0 0 0 23.673-1.718z" class="E"/><g fill="#1b255e"><path d="M241.162 324.919c59.324-1.764 93.28 12.08 96.044 30.486s-10.59 200.21-10.59 200.21-10.318 5.688-27.575 2.275c0 0-11.159-60.495-14.686-89.275s-.295-67.867-.295-67.867-55.502 19.418-88.98-1.729-2.935-79.891-2.935-79.891z"/><path d="M301.362 324.919c59.324-1.764 93.28 12.08 96.044 30.486S386.03 555.502 386.03 555.502s-8.565 5.335-26.778 2.98c0 0-11.159-61.041-14.686-89.867s-.295-67.867-.295-67.867-55.502 19.418-88.98-1.729-2.935-79.891-2.935-79.891z"/></g><path d="M277.086 26.549c3.908 9.405 6.481 19.311 7.645 29.429 0 0 5.346 9.408 5.46 12.82s-4.994 4.789-4.994 4.789 0 18.599-4.652 24.48-21.182 5.995-21.182 5.995-2.036 5.233 2.821 25.686h-46.423s5.483-14.788 6.484-38.188-9.977-65.011 54.841-65.011z" fill="#f5b58f"/><path d="M211.051 20.531c.943-1.037 2-1.964 3.151-2.764 4.565-3.246 9.769-5.479 15.266-6.552 7.19-1.604 14.607-1.991 21.853-3.356 8.418-1.581 16.528-4.482 24.628-7.28.473-.238.989-.375 1.518-.405s1.057.05 1.553.234a3.64 3.64 0 0 1 .99 1.105 3.63 3.63 0 0 1 .466 1.409c.923 3.891 1.093 7.922.501 11.876l3.083-2.821c1.035 3.561.341 7.406-.888 10.909s-2.969 6.825-4.118 10.329c-2.275 7.121-2.081 14.788-1.069 22.251a15.84 15.84 0 0 1 .103 6.075c-.512 1.979-2.116 3.834-4.153 3.913a16.03 16.03 0 0 0-1.797-6.7c-1.228-1.979-3.663-3.413-5.892-2.73s-3.413 3.071-3.743 5.335c-.508 3.233.145 6.541 1.843 9.339.807 1.32 1.877 2.696 1.615 4.209a5.22 5.22 0 0 1-1.137 2.116l-5.131 6.916c-2.275 2.992-4.55 6.052-7.621 8.111-3.614 2.154-7.717 3.353-11.922 3.481-4.052.389-8.141.043-12.07-1.024a10.24 10.24 0 0 1-4.402-2.275 12.58 12.58 0 0 1-2.377-3.868c-2.793-6.017-5.21-12.202-7.235-18.52a113.08 113.08 0 0 1-5.017-37.232 49.26 49.26 0 0 1 .728-9.624c.227-.907.663-1.749 1.274-2.457z" class="E"/><path d="m207.479 301.678c-5.085-3.765-10.636-7.963-15.926-12.376-12.012-10.09-22.751-21.045-24.07-29.031-2.935-17.882-.637-71.029.785-96.123 0-1.513.136-2.935.227-4.266 1.422-23.707 16.199-33.581 22.569-37.426 3.254 30.817 8.566 99.753 9.158 103.324.796 4.551 7.257 75.898 7.257 75.898z" class="B"/><path d="M207.934 123.4s2.821-11.819 5.961-14.788 22.842-3.128 29.144-2.343 25.106 5.551 27.154 7.087 5.096 10.044 5.096 10.044z" fill="#1634e2"/><g class="B"><path d="M173.284 154.239c-2.571-42.089 42.465-38.062 42.465-38.062 57.322-3.572 84.248 12.934 87.365 37.539.227 1.741.364 3.618.5 5.597 1.468 25.402-6.279 66.399-9.954 97.034-.068.568-.113 1.137-.17 1.717-1.138 17.064 7.872 66.832 7.872 66.832s-23.332 4.709-60.063 4.709-51.793-3.412-51.793-3.412 6.245-46.822 0-79.629c-5.722-28.849-14.754-67.924-16.222-92.325z"/><path d="m271.717 179.391-6.564-57.572s26.278-2.093 37.836 7.61c4.334 3.64 14.037 27.222 19.406 51.19-5.198 3.982-19.736 10.762-38.973 15.164-4.937-9.646-9.396-16.733-11.705-16.392z"/></g><path d="m424.309 258.895c-1.006-3.455-2.599-6.71-4.709-9.624-3.413-4.71-13.969-5.335-30.43-3.413-1.137-.421-42.294-15.789-60.472-17.678-1.866-9.885-5.552-28.882-9.761-47.64-5.198 3.981-14.64 3.663-33.876 8.065 9.328 22.25 20.385 56.673 20.385 56.673 12.752 18.542 60.074 15.346 77.274 13.514z" fill="#f5b58f"/><use href="#H" class="C"/><use href="#H" class="B D"/><use href="#I" class="C"/><use href="#I" class="B D"/><use href="#J" class="C"/><use href="#J" class="B D"/><use href="#K" class="C"/><use href="#K" class="B D"/><use href="#L" class="C"/><g class="B"><use href="#L" opacity=".5"/><path d="M113.358 199.617v.25l.512 2.798 1.296 4.63c2.742 9.044 7.292 21.511 8.293 45.23.819 19.759-2.537 46.639-1.046 71.006s5.687 58.561 31.271 76.853c4.946 3.604 10.407 6.442 16.199 8.418 5.102 1.793 10.335 3.188 15.653 4.175 8.316 1.544 16.726 2.532 25.174 2.958 5.301.295 10.613.432 15.846.489 10.67.091 20.988-.228 30.066-.489l6.677-.171c2.73-.068 5.79-.227 9.101-.489 8.065-.614 17.723-1.752 27.893-3.276l16.016-2.639c29.907-5.392 59.472-13.298 63.226-20.238a10.15 10.15 0 0 0 1.433-6.745c-.043-.355-.119-.706-.227-1.047a8.15 8.15 0 0 0-1.001-2.025c-.626-.921-14.732 5.04-16.097 5.563-34.229 13.105-81.278 4.072-87.034-37.972-4.881-35.821-3.413-70.369-16.359-104.939-25.549-68.095-126.667-49.45-146.881-44.957-.119.868-.123 1.748-.011 2.617zm212.916-25.447c-.329 0 1.991-25.106 5.188-56.002l6.359-55.889c.318.034-1.991 25.106-5.188 56.002l-6.359 55.889zm30.851-105.725c6.49 0 11.751-.265 11.751-.592s-5.261-.591-11.751-.591-11.751.265-11.751.591 5.261.592 11.751.592zm111.685-.592c0 .33-20.942.592-46.787.592s-46.788-.262-46.788-.592 20.942-.591 46.788-.591l46.787.591zm-114.449 59.825c6.489 0 11.751-.265 11.751-.592s-5.262-.591-11.751-.591-11.751.264-11.751.591 5.261.592 11.751.592zm64.897 0l46.788-.592c0-.327-20.948-.591-46.788-.591l-46.788.591c0 .327 20.948.592 46.788.592zm14.914 26.709c0 .33-20.943.592-46.788.592s-46.788-.262-46.788-.592 20.943-.591 46.788-.591l46.788.591zm-71.473-69.22c9.129 0 16.529-.265 16.529-.591s-7.4-.591-16.529-.591-16.529.265-16.529.591 7.4.591 16.529.591zm-.83 24.514c9.128 0 16.528-.265 16.528-.591s-7.4-.592-16.528-.592-16.529.265-16.529.592 7.4.591 16.529.591zm27.938 35.048c9.129 0 16.529-.264 16.529-.591s-7.4-.592-16.529-.592-16.528.265-16.528.592 7.4.591 16.528.591zm67.435-59.562l42.214-.591c0-.327-18.9-.591-42.214-.591l-42.215.591c0 .327 18.9.591 42.215.591zm-26.062 25.936l42.215-.591c0-.327-18.901-.592-42.215-.592l-42.215.592c0 .327 18.9.591 42.215.591zm29.053 33.626l42.215-.591c0-.327-18.9-.592-42.215-.592l-42.215.592c0 .327 18.9.591 42.215.591zm-77.081 24.344l42.215-.591c0-.327-18.9-.592-42.215-.592l-42.214.592c0 .326 18.9.591 42.214.591zm93.36 0l42.214-.591c0-.327-18.9-.592-42.214-.592l-42.215.592c0 .326 18.9.591 42.215.591zm-93.371 9.772l42.215-.592c0-.327-18.901-.591-42.215-.591l-42.215.591c0 .327 18.9.592 42.215.592zm4.107-86.636l42.214-.592c0-.327-18.9-.591-42.214-.591l-42.215.591c0 .327 18.9.592 42.215.592zm8.827-6.951c6.006 0 10.875-.265 10.875-.592s-4.869-.591-10.875-.591-10.875.265-10.875.591 4.869.592 10.875.592zm-43.603 50.473c6.007 0 10.876-.264 10.876-.591s-4.869-.592-10.876-.592-10.875.265-10.875.592 4.869.591 10.875.591zm-.511 8.998c6.006 0 10.875-.264 10.875-.591s-4.869-.592-10.875-.592-10.875.265-10.875.592 4.868.591 10.875.591zM528.487 56.5c0 .33-29.873.592-94.77.592s-106.1-.262-106.1-.592 41.236-.592 106.157-.592l94.713.592zm176.265 201.746l13.434-98.967c.183-.685.207-1.403.068-2.099a4.62 4.62 0 0 0-.868-1.911c-.432-.562-.989-1.017-1.625-1.33s-1.336-.475-2.046-.473H601.097a4.62 4.62 0 0 0-2.836.966 4.63 4.63 0 0 0-1.646 2.503l-12.934 101.243z"/><use href="#M"/></g><use href="#M" class="E F"/><use href="#N" class="C"/><g class="B"><use href="#N" opacity=".1"/><path d="M603.831 195.402l2.676-28.714c-.156-.016-1.608 12.814-3.242 28.656l-2.676 28.714c.156.016 1.607-12.814 3.242-28.656zm12.612-25.555l6.017-.284c0-.157-2.694-.285-6.017-.285l-6.018.285c0 .157 2.694.284 6.018.284zm33.273 0l23.991-.284c0-.157-10.741-.285-23.991-.285l-23.991.285c0 .157 10.741.284 23.991.284zm-34.695 30.373l6.017-.285c0-.157-2.694-.284-6.017-.284l-6.018.284c0 .157 2.694.285 6.018.285zm33.273 0l23.991-.285c0-.157-10.741-.284-23.991-.284l-23.991.284c0 .157 10.741.285 23.991.285zm-16.347 13.992l23.991-.285c0-.157-10.741-.284-23.991-.284l-23.991.284c0 .158 10.742.285 23.991.285z"/><use href="#O"/><use href="#O" x="-0.432" y="12.57"/><path d="M633.187 208.956l8.475-.284c0-.157-3.794-.285-8.475-.285l-8.475.285c0 .157 3.795.284 8.475.284z"/><use href="#P"/><use href="#P" x="-13.366" y="13.298"/><use href="#P" x="1.536" y="30.532"/><use href="#P" x="-37.994" y="45.923"/><path d="M677.643 224.347l21.648-.284c0-.157-9.692-.285-21.648-.285l-21.647.285c0 .157 9.692.284 21.647.284zm0 10.238l21.648-.284c0-.157-9.692-.284-21.648-.284l-21.647.284c0 .157 9.692.284 21.647.284z"/><use href="#P" x="-35.628" y="59.574"/><path d="M677.643 241.411l21.648-.285c0-.157-9.692-.284-21.648-.284l-21.647.284c0 .157 9.692.285 21.647.285zm-47.868-12.047l21.648-.285c0-.157-9.692-.284-21.648-.284l-21.648.284c0 .157 9.692.285 21.648.285z"/><use href="#P" x="-35.89" y="3.606"/><path d="M636.407 178.47c3.078 0 5.574-.128 5.574-.285s-2.496-.284-5.574-.284-5.574.127-5.574.284 2.495.285 5.574.285zm-22.364 25.867c3.078 0 5.574-.127 5.574-.284s-2.496-.284-5.574-.284-5.574.127-5.574.284 2.495.284 5.574.284zm-.262 4.619c3.078 0 5.574-.127 5.574-.284s-2.496-.285-5.574-.285-5.574.128-5.574.285 2.495.284 5.574.284zm96.055-46.879c0 .16-9.476.205-42.749.205s-60.291-.125-60.291-.284 26.972-.285 60.291-.285l42.749.364z"/></g><path d="M736 595.487H0V608h736z" class="C"/><path d="M736 595.487H0V608h736z" class="B F"/><defs ><path id="B" d="M88.479 323.11h70.404v-61.178H88.479z"/><path id="C" d="M126.132 275.674c1.351 0 2.446-1.095 2.446-2.446s-1.095-2.446-2.446-2.446-2.445 1.095-2.445 2.446 1.095 2.446 2.445 2.446z"/><path id="D" d="M126.132 413.489c1.351 0 2.446-1.095 2.446-2.446s-1.095-2.445-2.446-2.445-2.445 1.095-2.445 2.445 1.095 2.446 2.445 2.446z"/><path id="E" d="M735.909 265.982c0-4.198-5.221-7.622-11.66-7.622H139.658c-6.438 0-11.66 3.413-11.66 7.622v13.89h42.977v315.194h14.333V279.86h490.288v315.627h14.333V279.86h45.957z"/><path id="F" d="M400.932 258.61h61.735V95.268h-61.735z"/><path id="G" d="M548.872 44.033v157.256l-59.722-.956-62.566-1.001-19.759-.318-63.283-1.013-38.21-.66V44.033c.003-2.638 1.053-5.167 2.919-7.031s4.397-2.911 7.035-2.911h223.609a9.96 9.96 0 0 1 3.814.75c1.209.498 2.309 1.23 3.235 2.153a9.96 9.96 0 0 1 2.165 3.228 9.97 9.97 0 0 1 .763 3.811z"/><path id="H" d="M129.238 596.829a4.43 4.43 0 0 0 1.787.09c.595-.091 1.166-.303 1.677-.622a4.44 4.44 0 0 0 1.294-1.235 4.41 4.41 0 0 0 .702-1.645l54.262-193.59-15.994-4.812-46.902 195.808a5.05 5.05 0 0 0 .427 3.616c.586 1.111 1.566 1.963 2.747 2.39z"/><path id="I" d="M356.875 596.829c-.584.151-1.192.182-1.787.09a4.43 4.43 0 0 1-1.677-.622 4.46 4.46 0 0 1-1.295-1.235c-.343-.495-.582-1.055-.702-1.645l-54.273-193.59 15.995-4.812 46.901 195.774a5.05 5.05 0 0 1-3.162 6.04z"/><path id="J" d="M290.43 596.943c-.603.073-1.215.024-1.799-.144s-1.129-.451-1.602-.833a4.56 4.56 0 0 1-1.152-1.39 4.54 4.54 0 0 1-.52-1.728L253.232 393.65l16.369-2.696 24.606 200.438c.192 1.232-.092 2.49-.793 3.521s-1.768 1.756-2.984 2.03z"/><path id="K" d="M192.782 596.943c.603.072 1.215.023 1.799-.145a4.55 4.55 0 0 0 1.602-.832 4.57 4.57 0 0 0 1.152-1.39c.287-.536.464-1.123.521-1.728l32.124-199.21-16.392-2.696-24.583 200.449a4.92 4.92 0 0 0 3.777 5.552z"/><path id="L" d="M113.358 199.617v.25l.512 2.798 1.296 4.63c2.742 9.044 7.292 21.512 8.293 45.23.819 19.759-2.537 46.639-1.046 71.006s5.687 58.561 31.271 76.853c4.946 3.605 10.407 6.442 16.199 8.418 5.102 1.793 10.335 3.188 15.653 4.175 8.316 1.544 16.726 2.532 25.174 2.958 5.301.296 10.613.432 15.846.489 10.67.091 20.988-.228 30.066-.489l6.677-.171c2.73-.068 5.79-.227 9.101-.489 8.065-.614 17.723-1.752 27.893-3.276l16.016-2.639c29.907-5.392 59.472-13.298 63.226-20.237 1.25-2.013 1.757-4.399 1.433-6.746-.043-.355-.119-.706-.227-1.047a8.15 8.15 0 0 0-1.001-2.025 8.52 8.52 0 0 0-1.138-1.456c-1.517-1.44-3.38-2.463-5.41-2.969s-4.155-.479-6.17.08c-12.752 3.253-50.781 10.5-67.844-11.171-20.692-26.255-11.683-24.036-20.59-87.979-8.372-60.484-25.311-72.69-56.525-84.782-26.801-10.306-66.536-8.816-88.172-5.688-4.151.516-8.26 1.322-12.297 2.412a11.56 11.56 0 0 0-5.423 3.46c-1.444 1.643-2.392 3.662-2.734 5.823-.138.853-.165 1.721-.079 2.582z"/><path id="M" d="M596.535 156.924l-12.513 93.61h-62.588v7.724h184.99L718.3 159.29c.173-.682.188-1.395.044-2.084a4.61 4.61 0 0 0-.877-1.891c-.432-.555-.986-1.004-1.618-1.313s-1.328-.469-2.031-.468H600.995a4.63 4.63 0 0 0-2.803.942c-.805.612-1.387 1.473-1.657 2.448z"/><path id="N" d="M702.544 250.807H589.79l10.92-93.12h113.335z"/><path id="O" d="M619.298 178.424l8.475-.284c0-.157-3.795-.285-8.475-.285l-8.475.285c0 .157 3.794.284 8.475.284z"/><path id="P" d="M667.769 178.424l21.648-.284c0-.157-9.692-.285-21.648-.285l-21.648.285c0 .157 9.692.284 21.648.284z"/></defs></svg>